<?xml version="1.0" encoding="UTF-8"?>
<svg xmlns="http://www.w3.org/2000/svg" xmlns:xlink="http://www.w3.org/1999/xlink" width="11px" height="23px" viewBox="0 0 11 20" version="1.1">
<g id="surface1">
<path style=" stroke:none;fill-rule:nonzero;fill:rgb(100%,100%,100%);fill-opacity:1;" d="M 0.511719 13.5 C 0.539062 13.503906 0.570312 13.503906 0.597656 13.503906 C 0.617188 13.503906 0.636719 13.503906 0.65625 13.503906 C 0.703125 13 0.773438 12.09375 0.769531 11.277344 C 0.761719 10.523438 1.242188 10.089844 1.714844 9.871094 L 1.816406 9.734375 C 1.847656 9.535156 1.917969 9.308594 2.066406 9.109375 C 2.195312 8.9375 2.363281 8.8125 2.570312 8.726562 L 3.117188 7.996094 C 2.992188 8.023438 2.859375 8.039062 2.714844 8.046875 C 2.433594 8.0625 2.121094 8.085938 1.738281 8.273438 L 1.402344 8.445312 L 1.453125 8.246094 L 0.585938 9.402344 C 0.53125 9.480469 0.492188 9.570312 0.480469 9.664062 L 0.0078125 12.839844 C -0.0429688 13.15625 0.183594 13.453125 0.511719 13.5 Z M 0.511719 13.5 "/>
<path style=" stroke:none;fill-rule:nonzero;fill:rgb(100%,100%,100%);fill-opacity:1;" d="M 3.371094 5.515625 L 3.828125 5.296875 L 3.59375 4.839844 L 2.902344 5.171875 L 2.023438 3.4375 L 2.171875 3.367188 L 2.007812 3.042969 L 1.027344 3.511719 L 1.191406 3.839844 L 1.335938 3.769531 L 2.214844 5.503906 L 1.523438 5.835938 L 1.753906 6.292969 L 2.210938 6.074219 L 2.414062 6.476562 C 2.835938 6.132812 3.296875 6.042969 3.632812 6.035156 Z M 3.371094 5.515625 "/>
<path style=" stroke:none;fill-rule:nonzero;fill:rgb(100%,100%,100%);fill-opacity:1;" d="M 6.484375 16.105469 L 6.734375 19.132812 C 6.777344 19.628906 7.222656 19.996094 7.730469 19.957031 C 8.238281 19.914062 8.617188 19.480469 8.574219 18.988281 L 8.328125 16.03125 C 8.078125 16.269531 7.738281 16.414062 7.359375 16.414062 C 7.027344 16.414062 6.722656 16.300781 6.484375 16.105469 Z M 6.484375 16.105469 "/>
<path style=" stroke:none;fill-rule:nonzero;fill:rgb(100%,100%,100%);fill-opacity:1;" d="M 3.175781 7.984375 L 3.511719 8.644531 C 4.257812 8.828125 4.523438 9.679688 4.804688 10.574219 C 4.855469 10.734375 4.90625 10.898438 4.960938 11.058594 C 5.230469 11.859375 5.820312 12.035156 5.84375 12.042969 L 6.386719 12.203125 L 5.847656 12.363281 C 5.839844 12.367188 5.652344 12.421875 5.402344 12.453125 C 5.117188 12.488281 4.871094 12.480469 4.65625 12.433594 C 4.839844 12.960938 4.984375 13.339844 4.988281 13.347656 L 5.046875 13.5 L 4.894531 13.5625 C 4.859375 13.578125 4.265625 13.820312 3.683594 14.003906 L 3.667969 14.1875 C 3.421875 14.40625 3.269531 14.71875 3.269531 15.066406 C 3.269531 15.71875 3.8125 16.246094 4.480469 16.246094 C 5.148438 16.246094 5.691406 15.71875 5.691406 15.066406 C 5.691406 14.828125 5.621094 14.609375 5.5 14.425781 L 5.65625 12.566406 L 6.214844 12.90625 L 6.34375 14.425781 C 6.21875 14.609375 6.148438 14.828125 6.148438 15.066406 C 6.148438 15.71875 6.691406 16.246094 7.359375 16.246094 C 8.03125 16.246094 8.574219 15.71875 8.574219 15.066406 C 8.574219 14.71875 8.417969 14.40625 8.171875 14.1875 L 7.964844 11.683594 L 8.285156 8.40625 C 8.777344 9.101562 9.367188 10.359375 9.816406 12.628906 C 9.871094 12.910156 10.121094 13.101562 10.402344 13.101562 C 10.441406 13.101562 10.476562 13.097656 10.515625 13.089844 C 10.839844 13.03125 11.050781 12.722656 10.988281 12.410156 C 10.621094 10.554688 10.121094 9.105469 9.492188 8.082031 C 9.363281 8.0625 9.242188 8.054688 9.128906 8.046875 C 8.449219 8.003906 8.007812 7.898438 7.5625 6.425781 C 7.488281 6.410156 7.417969 6.402344 7.363281 6.402344 L 4.480469 6.402344 C 4.425781 6.402344 4.355469 6.410156 4.277344 6.425781 C 3.945312 7.535156 3.609375 7.867188 3.175781 7.984375 Z M 3.175781 7.984375 "/>
<path style=" stroke:none;fill-rule:nonzero;fill:rgb(100%,100%,100%);fill-opacity:1;" d="M 3.515625 16.03125 L 3.265625 18.988281 C 3.226562 19.480469 3.605469 19.914062 4.109375 19.957031 C 4.617188 19.996094 5.0625 19.628906 5.105469 19.132812 L 5.359375 16.105469 C 5.121094 16.300781 4.8125 16.414062 4.480469 16.414062 C 4.105469 16.414062 3.765625 16.269531 3.515625 16.03125 Z M 3.515625 16.03125 "/>
<path style=" stroke:none;fill-rule:nonzero;fill:rgb(100%,100%,100%);fill-opacity:1;" d="M 1.660156 8.125 C 2.910156 7.5 3.484375 8.578125 4.148438 6.261719 C 4.148438 6.261719 2.28125 5.6875 1.660156 8.125 Z M 1.660156 8.125 "/>
<path style=" stroke:none;fill-rule:nonzero;fill:rgb(100%,100%,100%);fill-opacity:1;" d="M 10.179688 8.125 C 9.558594 5.6875 7.691406 6.261719 7.691406 6.261719 C 8.359375 8.578125 8.929688 7.5 10.179688 8.125 Z M 10.179688 8.125 "/>
<path style=" stroke:none;fill-rule:nonzero;fill:rgb(100%,100%,100%);fill-opacity:1;" d="M 7.875 1.675781 L 7.902344 1.675781 C 7.953125 1.09375 8.128906 0.917969 8.726562 0.871094 L 8.726562 0.84375 C 8.128906 0.796875 7.953125 0.621094 7.902344 0.0390625 L 7.875 0.0390625 C 7.824219 0.621094 7.648438 0.796875 7.050781 0.84375 L 7.050781 0.871094 C 7.648438 0.917969 7.824219 1.09375 7.875 1.675781 Z M 7.875 1.675781 "/>
<path style=" stroke:none;fill-rule:nonzero;fill:rgb(100%,100%,100%);fill-opacity:1;" d="M 8.90625 5.066406 L 8.929688 5.066406 C 8.972656 4.570312 9.125 4.417969 9.636719 4.378906 L 9.636719 4.355469 C 9.125 4.3125 8.972656 4.164062 8.929688 3.664062 L 8.90625 3.664062 C 8.863281 4.164062 8.710938 4.3125 8.199219 4.355469 L 8.199219 4.378906 C 8.710938 4.417969 8.863281 4.570312 8.90625 5.066406 Z M 8.90625 5.066406 "/>
<path style=" stroke:none;fill-rule:nonzero;fill:rgb(100%,100%,100%);fill-opacity:1;" d="M 9.859375 3.183594 C 9.914062 2.515625 10.121094 2.316406 10.804688 2.257812 L 10.804688 2.230469 C 10.121094 2.175781 9.914062 1.972656 9.859375 1.304688 L 9.828125 1.304688 C 9.769531 1.972656 9.566406 2.175781 8.882812 2.230469 L 8.882812 2.257812 C 9.566406 2.316406 9.769531 2.515625 9.828125 3.183594 Z M 9.859375 3.183594 "/>
<path style=" stroke:none;fill-rule:nonzero;fill:rgb(100%,100%,100%);fill-opacity:1;" d="M 4.175781 10.855469 C 4.296875 11.324219 4.449219 11.820312 4.59375 12.242188 C 5.121094 12.40625 5.796875 12.203125 5.796875 12.203125 C 5.796875 12.203125 5.105469 12.011719 4.800781 11.113281 C 4.375 9.859375 4.175781 8.621094 2.972656 8.792969 C 2.253906 8.894531 2.042969 9.386719 1.984375 9.765625 C 2.097656 9.734375 2.203125 9.710938 2.292969 9.699219 C 2.828125 9.636719 3.90625 9.800781 4.175781 10.855469 Z M 4.175781 10.855469 "/>
<path style=" stroke:none;fill-rule:nonzero;fill:rgb(100%,100%,100%);fill-opacity:1;" d="M 4.011719 10.894531 C 3.707031 9.703125 2.316406 9.863281 2.316406 9.863281 C 2.316406 9.863281 0.929688 10.046875 0.9375 11.273438 C 0.949219 12.503906 0.789062 13.90625 0.789062 13.90625 C 0.789062 13.90625 1.988281 14.078125 2.671875 14.050781 L 2.480469 12.570312 L 1.480469 12.453125 L 1.523438 12.09375 L 2.613281 12.222656 L 3.652344 11.828125 L 3.789062 12.167969 L 2.847656 12.523438 L 3.042969 14.007812 C 3.710938 13.867188 4.828125 13.40625 4.828125 13.40625 C 4.828125 13.40625 4.3125 12.085938 4.011719 10.894531 Z M 4.011719 10.894531 "/>
<path style=" stroke:none;fill-rule:nonzero;fill:rgb(100%,100%,100%);fill-opacity:1;" d="M 5.921875 6.007812 C 6.847656 6.007812 7.597656 5.273438 7.597656 4.371094 C 7.597656 3.464844 6.847656 2.734375 5.921875 2.734375 C 4.992188 2.734375 4.242188 3.464844 4.242188 4.371094 C 4.242188 5.273438 4.992188 6.007812 5.921875 6.007812 Z M 7.019531 4.773438 C 7.019531 4.773438 6.441406 6.15625 5.355469 5.082031 C 5.355469 5.082031 6.402344 5.210938 7.019531 4.773438 Z M 7.019531 4.773438 "/>
</g>
</svg>
