<?xml version="1.0" encoding="UTF-8"?>
<svg xmlns="http://www.w3.org/2000/svg" xmlns:xlink="http://www.w3.org/1999/xlink" width="11px" height="23px" viewBox="0 0 81 150" version="1.1">
<g id="surface1">
<path style=" stroke:none;fill-rule:nonzero;fill:rgb(0%,0%,0%);fill-opacity:1;" d="M 3.949219 101.246094 C 4.160156 101.277344 4.371094 101.292969 4.578125 101.292969 C 4.730469 101.292969 4.875 101.28125 5.019531 101.269531 C 5.359375 97.511719 5.878906 90.710938 5.828125 84.574219 C 5.78125 78.910156 9.304688 75.660156 12.769531 74.027344 L 13.523438 72.996094 C 13.742188 71.507812 14.25 69.8125 15.34375 68.320312 C 16.285156 67.042969 17.519531 66.089844 19.035156 65.457031 L 23.035156 59.984375 C 22.117188 60.1875 21.144531 60.277344 20.089844 60.347656 C 18.042969 60.480469 15.730469 60.632812 12.945312 62.058594 L 10.484375 63.328125 L 10.855469 61.832031 L 4.503906 70.519531 C 4.085938 71.097656 3.808594 71.765625 3.707031 72.464844 L 0.25 96.296875 C -0.0976562 98.683594 1.558594 100.902344 3.949219 101.246094 Z M 3.949219 101.246094 "/>
<path style=" stroke:none;fill-rule:nonzero;fill:rgb(0%,0%,0%);fill-opacity:1;" d="M 24.890625 41.371094 L 28.238281 39.722656 L 26.546875 36.292969 L 21.464844 38.796875 L 15.035156 25.785156 L 16.113281 25.257812 L 14.902344 22.8125 L 7.714844 26.351562 L 8.921875 28.796875 L 10.003906 28.269531 L 16.433594 41.277344 L 11.351562 43.777344 L 13.042969 47.207031 L 16.390625 45.558594 L 17.882812 48.574219 C 20.992188 45.984375 24.363281 45.328125 26.820312 45.273438 Z M 24.890625 41.371094 "/>
<path style=" stroke:none;fill-rule:nonzero;fill:rgb(0%,0%,0%);fill-opacity:1;" d="M 47.703125 120.804688 L 49.558594 143.496094 C 49.859375 147.210938 53.121094 149.972656 56.84375 149.671875 C 60.558594 149.371094 63.332031 146.113281 63.027344 142.398438 L 61.214844 120.222656 C 59.386719 122.007812 56.890625 123.109375 54.136719 123.109375 C 51.695312 123.109375 49.457031 122.246094 47.703125 120.804688 Z M 47.703125 120.804688 "/>
<path style=" stroke:none;fill-rule:nonzero;fill:rgb(0%,0%,0%);fill-opacity:1;" d="M 23.46875 59.875 L 25.925781 64.839844 C 31.386719 66.21875 33.359375 72.609375 35.417969 79.3125 C 35.785156 80.5 36.164062 81.726562 36.566406 82.945312 C 38.539062 88.929688 42.839844 90.273438 43.023438 90.332031 L 46.996094 91.515625 L 43.039062 92.734375 C 42.984375 92.753906 41.632812 93.164062 39.773438 93.398438 C 37.707031 93.660156 35.886719 93.605469 34.328125 93.253906 C 35.65625 97.21875 36.734375 100.050781 36.75 100.105469 L 37.183594 101.238281 L 36.066406 101.707031 C 35.796875 101.820312 31.449219 103.644531 27.191406 105.03125 L 27.074219 106.417969 C 25.28125 108.039062 24.144531 110.378906 24.144531 112.988281 C 24.144531 117.886719 28.121094 121.859375 33.027344 121.859375 C 37.933594 121.859375 41.90625 117.886719 41.90625 112.988281 C 41.90625 111.21875 41.382812 109.578125 40.492188 108.195312 L 41.632812 94.257812 L 45.746094 96.8125 L 46.675781 108.195312 C 45.777344 109.574219 45.257812 111.21875 45.257812 112.988281 C 45.257812 117.886719 49.234375 121.859375 54.136719 121.859375 C 59.042969 121.859375 63.019531 117.886719 63.019531 112.988281 C 63.019531 110.378906 61.886719 108.039062 60.089844 106.417969 L 58.554688 87.621094 L 60.917969 63.046875 C 64.5 68.253906 68.824219 77.695312 72.132812 94.726562 C 72.535156 96.8125 74.367188 98.261719 76.421875 98.261719 C 76.695312 98.261719 76.976562 98.238281 77.257812 98.179688 C 79.628906 97.722656 81.175781 95.433594 80.71875 93.066406 C 78.019531 79.164062 74.34375 68.292969 69.761719 60.613281 C 68.816406 60.464844 67.917969 60.402344 67.078125 60.347656 C 62.117188 60.023438 58.863281 59.242188 55.613281 48.195312 C 55.058594 48.085938 54.550781 48.03125 54.140625 48.03125 L 33.027344 48.03125 C 32.613281 48.03125 32.105469 48.085938 31.550781 48.195312 C 29.101562 56.519531 26.648438 59.015625 23.46875 59.875 Z M 23.46875 59.875 "/>
<path style=" stroke:none;fill-rule:nonzero;fill:rgb(0%,0%,0%);fill-opacity:1;" d="M 25.949219 120.222656 L 24.136719 142.398438 C 23.835938 146.113281 26.605469 149.371094 30.324219 149.671875 C 34.042969 149.972656 37.304688 147.210938 37.609375 143.496094 L 39.460938 120.804688 C 37.710938 122.246094 35.46875 123.109375 33.027344 123.109375 C 30.273438 123.109375 27.777344 122.007812 25.949219 120.222656 Z M 25.949219 120.222656 "/>
<path style=" stroke:none;fill-rule:nonzero;fill:rgb(0%,0%,0%);fill-opacity:1;" d="M 12.371094 60.945312 C 21.53125 56.238281 25.726562 64.339844 30.597656 46.964844 C 30.597656 46.964844 16.925781 42.664062 12.371094 60.945312 Z M 12.371094 60.945312 "/>
<path style=" stroke:none;fill-rule:nonzero;fill:rgb(0%,0%,0%);fill-opacity:1;" d="M 74.792969 60.945312 C 70.238281 42.664062 56.566406 46.964844 56.566406 46.964844 C 61.4375 64.339844 65.632812 56.238281 74.792969 60.945312 Z M 74.792969 60.945312 "/>
<path style=" stroke:none;fill-rule:nonzero;fill:rgb(0%,0%,0%);fill-opacity:1;" d="M 57.90625 12.558594 L 58.101562 12.558594 C 58.464844 8.199219 59.773438 6.894531 64.136719 6.53125 L 64.136719 6.335938 C 59.773438 5.96875 58.464844 4.667969 58.101562 0.304688 L 57.90625 0.304688 C 57.542969 4.667969 56.234375 5.96875 51.867188 6.335938 L 51.867188 6.53125 C 56.234375 6.894531 57.542969 8.199219 57.90625 12.558594 Z M 57.90625 12.558594 "/>
<path style=" stroke:none;fill-rule:nonzero;fill:rgb(0%,0%,0%);fill-opacity:1;" d="M 65.460938 38.011719 L 65.632812 38.011719 C 65.941406 34.265625 67.066406 33.144531 70.816406 32.832031 L 70.816406 32.664062 C 67.066406 32.351562 65.941406 31.234375 65.632812 27.488281 L 65.460938 27.488281 C 65.148438 31.234375 64.027344 32.351562 60.277344 32.664062 L 60.277344 32.832031 C 64.027344 33.144531 65.148438 34.265625 65.460938 38.011719 Z M 65.460938 38.011719 "/>
<path style=" stroke:none;fill-rule:nonzero;fill:rgb(0%,0%,0%);fill-opacity:1;" d="M 72.4375 23.871094 C 72.855469 18.859375 74.351562 17.367188 79.371094 16.949219 L 79.371094 16.722656 C 74.351562 16.304688 72.855469 14.808594 72.4375 9.796875 L 72.210938 9.796875 C 71.792969 14.808594 70.296875 16.304688 65.277344 16.722656 L 65.277344 16.949219 C 70.296875 17.367188 71.792969 18.859375 72.210938 23.871094 Z M 72.4375 23.871094 "/>
<path style=" stroke:none;fill-rule:nonzero;fill:rgb(0%,0%,0%);fill-opacity:1;" d="M 30.800781 81.410156 C 31.683594 84.941406 32.8125 88.644531 33.851562 91.816406 C 37.714844 93.054688 42.667969 91.535156 42.667969 91.535156 C 42.667969 91.535156 37.597656 90.097656 35.371094 83.335938 C 32.269531 73.941406 30.796875 64.660156 21.996094 65.941406 C 16.714844 66.710938 15.15625 70.410156 14.753906 73.25 C 15.566406 72.996094 16.332031 72.824219 17 72.734375 C 20.925781 72.273438 28.828125 73.496094 30.800781 81.410156 Z M 30.800781 81.410156 "/>
<path style=" stroke:none;fill-rule:nonzero;fill:rgb(0%,0%,0%);fill-opacity:1;" d="M 29.582031 81.714844 C 27.355469 72.78125 17.171875 73.980469 17.171875 73.980469 C 17.171875 73.980469 7.007812 75.355469 7.085938 84.5625 C 7.160156 93.765625 5.984375 104.296875 5.984375 104.296875 C 5.984375 104.296875 14.773438 105.59375 19.78125 105.394531 L 18.371094 94.289062 L 11.042969 93.410156 L 11.371094 90.699219 L 19.363281 91.660156 L 26.96875 88.722656 L 27.953125 91.269531 L 21.078125 93.921875 L 22.492188 105.050781 C 27.386719 103.996094 35.578125 100.550781 35.578125 100.550781 C 35.578125 100.550781 31.808594 90.648438 29.582031 81.714844 Z M 29.582031 81.714844 "/>
<path style=" stroke:none;fill-rule:nonzero;fill:rgb(0%,0%,0%);fill-opacity:1;" d="M 43.582031 45.054688 C 50.375 45.054688 55.878906 39.558594 55.878906 32.777344 C 55.878906 25.992188 50.375 20.5 43.582031 20.5 C 36.789062 20.5 31.285156 25.992188 31.285156 32.777344 C 31.285156 39.558594 36.789062 45.054688 43.582031 45.054688 Z M 51.636719 35.800781 C 51.636719 35.800781 47.386719 46.179688 39.449219 38.105469 C 39.449219 38.105469 47.101562 39.078125 51.636719 35.800781 Z M 51.636719 35.800781 "/>
</g>
</svg>
